<svg width="128" height="84" viewBox="0 0 128 84" fill="none" xmlns="http://www.w3.org/2000/svg">
<path d="M113.377 0.458739C111.557 0.990057 109.894 1.97208 108.537 3.31702C107.18 4.66197 106.172 6.32793 105.603 8.16599L89.2062 61.0709C88.9407 61.9298 87.7552 61.9558 87.4527 61.1101L73.2592 21.4354C72.4445 19.1554 70.8097 17.2749 68.685 16.1734C66.5603 15.072 64.104 14.8317 61.8119 15.5011C59.8456 16.0746 58.1163 17.2837 56.8853 18.9456C55.6543 20.6074 54.9884 22.6318 54.9884 24.7127V53.9619C54.9884 54.846 53.8384 55.1593 53.4039 54.3938L38.5899 28.2829C37.7658 26.8311 36.4939 25.6965 34.9714 25.055C33.4489 24.4135 31.7609 24.301 30.1691 24.7349C28.5773 25.1688 27.1708 26.1249 26.1675 27.4549C25.1643 28.7849 24.6204 30.4145 24.6203 32.091V56.4902H32.0018V35.9681C32.0018 35.084 33.1518 34.7708 33.5863 35.5363L47.8654 60.7058C48.9857 62.6792 50.8153 64.1331 52.9686 64.7612C58.4916 66.3724 63.9945 62.1544 63.9945 56.3088V29.0987C63.9945 28.1329 65.3159 27.8958 65.6408 28.8034L79.6968 68.0903C80.4287 70.1362 81.7722 71.8974 83.5385 73.1266C85.3048 74.3558 87.4053 74.9913 89.5448 74.9437C91.6843 74.8962 93.7555 74.168 95.4673 72.8614C97.1792 71.5549 98.4457 69.7357 99.0891 67.6592L114.088 19.2683C114.379 18.3261 115.746 18.5405 115.746 19.5282V83.0714H128V11.6694C128 3.91664 120.702 -1.67771 113.377 0.458739Z" fill="#A76905"/>
<path d="M9.71466 36.9764C10.3918 36.9613 11.0571 37.1577 11.621 37.5393C12.1901 37.923 12.6385 38.4655 12.9122 39.1018H19.4911C18.8736 35.9745 17.2775 33.535 14.4497 32.0965C13.097 31.4684 11.5598 31.1543 9.83815 31.1543C3.81193 31.159 0 35.2875 0 41.4173C0 47.1718 3.443 51.6756 9.83815 51.6756C13.4039 51.6756 15.9863 50.362 17.7699 47.9224C18.6305 46.7345 19.1839 45.3581 19.4911 43.732H12.9122C12.6386 44.3686 12.1903 44.9114 11.621 45.2953C11.0571 45.6768 10.3918 45.8733 9.71466 45.8582C8.66964 45.8582 7.87006 45.4209 7.2557 44.6703C6.63826 43.8568 6.32954 42.7937 6.32954 41.4173C6.32954 40.0409 6.63826 38.9778 7.2557 38.1643C7.87237 37.4137 8.66964 36.9764 9.71466 36.9764Z" fill="#A76905"/>
</svg>
